# xmcd
#
# Track frame offsets: 
#        150
#        20383
#        39499
#        58796
#        76289
#        95864
#        113502
#        126138
#        147377
#        163570
#        181390
#        198878
#        218326
#        238012
#        254732
#        264863
#        282033
#        297344
#        314267
#        330473
#
# Disc length: 4690 seconds
#
# Revision: 0
# Processed by: cddbd v1.5.2PL0 Copyright (c) Steve Scherf et al.
# Submitted via: ExactAudioCopy v1.1
#
DISCID=1c125014
DTITLE=Various Artist - Radio 2 - 2 Dansant - CD 3
DYEAR=2012
DGENRE=Top 40
TTITLE0=Feargal Sharkey - A Good Heart
TTITLE1=Robbie Williams - Supreme
TTITLE2=White Town - Your Woman
TTITLE3=Everything But The Girl - Missing (Todd Terry Remix)
TTITLE4=Rob De Nijs - Banger Hart
TTITLE5=Freestylers - Push Up
TTITLE6=Roxy Music - Angel Eyes
TTITLE7=Wang Chung - Everybody Have Fun Tonight
TTITLE8=Bachman-Turner Overdrive - You Ain't Seen Nothin' Yet
TTITLE9=ZZ Top - Gimme All Your Lovin'
TTITLE10=Roxette - The Look
TTITLE11=Simple Minds - Don't You (Forget About Me)
TTITLE12=Culture Club - Do You Really Want To Hurt Me
TTITLE13=Soulsister - The Way To Your Heart
TTITLE14=Blondie - Denis
TTITLE15=Scott Fitzgerald and Yvonne Keeley - If I Had Words
TTITLE16=Santa Esmeralda Starring Leroy Gomez - Don't Let Me Be Misund
TTITLE16=erstood and Esmeralda Suite
TTITLE17=The Pretenders - Don't Get Me Wrong
TTITLE18=The J. Geils Band - Centerfold
TTITLE19=Guus Meeuwis and Vagant - Het Is Een Nacht... (Levensecht)
EXTD=
EXTT0=
EXTT1=
EXTT2=
EXTT3=
EXTT4=
EXTT5=
EXTT6=
EXTT7=
EXTT8=
EXTT9=
EXTT10=
EXTT11=
EXTT12=
EXTT13=
EXTT14=
EXTT15=
EXTT16=
EXTT17=
EXTT18=
EXTT19=
PLAYORDER=
